# FILE prunel_areashape_3.obj
mtllib prunel_areashape_3.mtl

shadow_obj prunel_areashape_3.obj

g CALQUE_ARCHICAD2_3_MTL237AA710D VOLUME_-_ZONE_02_3_MTL237AA710D FLAT_PART

usemtl VOLUME_-_ZONE_02_3_MTL237AA710D

v -481.938 -554.621 30
v -481.938 -554.621 3.1
v -562.555 -545.767 3.1
v -562.555 -545.767 30
v -562.555 -545.767 30
v -562.555 -545.767 3.1
v -568.673 -566.924 3.1
v -568.673 -566.924 30
v -568.673 -566.924 30
v -568.673 -566.924 3.1
v -551.5 -623.503 3.1
v -551.5 -623.503 30
v -551.5 -623.503 30
v -551.5 -623.503 3.1
v -527.54 -633.779 3.1
v -527.54 -633.779 30
v -527.54 -633.779 30
v -527.54 -633.779 3.1
v -299.413 -624.15 3.1
v -299.413 -624.15 30
v -299.413 -624.15 30
v -299.413 -624.15 3.1
v -294.331 -613.371 3.1
v -294.331 -613.371 30
v -294.331 -613.371 30
v -294.331 -613.371 3.1
v -262.831 -422.089 3.1
v -262.831 -422.089 30
v -262.831 -422.089 30
v -262.831 -422.089 3.1
v -271.755 -409.283 3.1
v -271.755 -409.283 30
v -271.755 -409.283 30
v -387.078 -362.286 30
v -476.619 -541.07 30
v -481.938 -554.621 30
v -562.555 -545.767 30
v -568.673 -566.924 30
v -551.5 -623.503 30
v -527.54 -633.779 30
v -299.413 -624.15 30
v -294.331 -613.371 30
v -262.831 -422.089 30
v -476.619 -541.07 3.1
v -387.078 -362.286 3.1
v -271.755 -409.283 3.1
v -262.831 -422.089 3.1
v -294.331 -613.371 3.1
v -299.413 -624.15 3.1
v -527.54 -633.779 3.1
v -551.5 -623.503 3.1
v -568.673 -566.924 3.1
v -562.555 -545.767 3.1
v -481.938 -554.621 3.1
v -271.755 -409.283 30
v -271.755 -409.283 3.1
v -387.078 -362.286 3.1
v -387.078 -362.286 30
# indices d'arêtes de 1 à 58

s off
vt -504.897 30
vt -504.897 3.1
vt -585.069 3.1
vt -585.069 30
# indices d'arêtes de texture de 1 à 4

f  1/1 2/2 3/3 4/4
vt -521.56 30
vt -521.56 3.1
vt -542.439 3.1
vt -542.439 30
# indices d'arêtes de texture de 5 à 8

f  4/5 3/6 7/7 8/8
vt -542.439 30
vt -542.439 3.1
vt -599.692 3.1
vt -599.692 30
# indices d'arêtes de texture de 9 à 12

f  8/9 7/10 11/11 12/12
vt -577.302 30
vt -577.302 3.1
vt -553.796 3.1
vt -553.796 30
# indices d'arêtes de texture de 13 à 16

f  12/13 11/14 15/15 16/16
vt -553.796 30
vt -553.796 3.1
vt -325.467 3.1
vt -325.467 30
# indices d'arêtes de texture de 17 à 20

f  16/17 15/18 19/19 20/20
vt -610.969 30
vt -610.969 3.1
vt -600.414 3.1
vt -600.414 30
# indices d'arêtes de texture de 21 à 24

f  20/21 19/22 23/23 24/24
vt -600.414 30
vt -600.414 3.1
vt -410.63 3.1
vt -410.63 30
# indices d'arêtes de texture de 25 à 28

f  24/25 23/26 27/27 28/28
vt -410.63 30
vt -410.63 3.1
vt -397.46 3.1
vt -397.46 30
# indices d'arêtes de texture de 29 à 32

f  28/29 27/30 31/31 32/32
vt -585.069 -521.56
vt -592.074 -542.439
vt -577.302 -599.692
vt -585.069 -521.56
vt -577.302 -599.692
vt -553.796 -610.969
vt -504.897 -533.805
vt -585.069 -521.56
vt -553.796 -610.969
vt -402.011 -345.641
vt -499.012 -520.49
vt -504.897 -533.805
vt -504.897 -533.805
vt -553.796 -610.969
vt -325.467 -610.969
vt -402.011 -345.641
vt -504.897 -533.805
vt -325.467 -610.969
vt -402.011 -345.641
vt -325.467 -610.969
vt -319.934 -600.414
vt -288.773 -397.46
vt -402.011 -345.641
vt -319.934 -600.414
vt -280.396 -410.63
vt -288.773 -397.46
vt -319.934 -600.414
# indices d'arêtes de texture de 33 à 59

f  4/33 8/34 12/35
f  4/36 12/37 16/38
f  1/39 4/40 16/41
f  34/42 35/43 1/44
f  1/45 16/46 20/47
f  34/48 1/49 20/50
f  34/51 20/52 24/53
f  32/54 34/55 24/56
f  28/57 32/58 24/59
vt -577.302 -599.692
vt -592.074 -542.439
vt -585.069 -521.56
vt -553.796 -610.969
vt -577.302 -599.692
vt -585.069 -521.56
vt -553.796 -610.969
vt -585.069 -521.56
vt -504.897 -533.805
vt -504.897 -533.805
vt -499.012 -520.49
vt -402.011 -345.641
vt -325.467 -610.969
vt -553.796 -610.969
vt -504.897 -533.805
vt -325.467 -610.969
vt -504.897 -533.805
vt -402.011 -345.641
vt -319.934 -600.414
vt -325.467 -610.969
vt -402.011 -345.641
vt -319.934 -600.414
vt -402.011 -345.641
vt -288.773 -397.46
vt -280.396 -410.63
vt -319.934 -600.414
vt -288.773 -397.46
# indices d'arêtes de texture de 60 à 86

f  11/60 7/61 3/62
f  15/63 11/64 3/65
f  15/66 3/67 2/68
f  2/69 44/70 45/71
f  19/72 15/73 2/74
f  19/75 2/76 45/77
f  23/78 19/79 45/80
f  23/81 45/82 31/83
f  27/84 23/85 31/86
vt -288.773 30
vt -288.773 3.1
vt -402.011 3.1
vt -402.011 30
# indices d'arêtes de texture de 87 à 90

f  32/87 31/88 45/89 34/90

g CALQUE_ARCHICAD2D0A943124969BA1 VOLUME_-_ZONE_02D0A943124969BA1 SMOOTH_PART

usemtl VOLUME_-_ZONE_02D0A943124969BA1

v -476.619 -541.07 30
v -476.619 -541.07 3.1
v -481.938 -554.621 3.1
v -481.938 -554.621 30
v -387.078 -362.286 30
v -387.078 -362.286 3.1
v -476.619 -541.07 3.1
v -476.619 -541.07 30
# indices d'arêtes de 59 à 66

vn -0.913427 0.407003 0
vn -0.913427 0.407003 0
vn -0.930865 0.365363 0
vn -0.930865 0.365363 0
vn -0.894127 0.447813 0
vn -0.894127 0.447813 0
vn -0.913427 0.407003 0
vn -0.913427 0.407003 0
# indices d'arêtes normales de 1 à 8

s 1
vt -520.49 30
vt -520.49 3.1
vt -533.805 3.1
vt -533.805 30
# indices d'arêtes de texture de 91 à 94

f  59/91/1 60/92/2 61/93/3 62/94/4
vt -345.641 30
vt -345.641 3.1
vt -520.49 3.1
vt -520.49 30
# indices d'arêtes de texture de 95 à 98

f  63/95/5 64/96/6 60/97/2 59/98/1
