# FILE prunel_extract_add.obj
mtllib prunel_extract_add.mtl

shadow_obj prunel_extract_add.obj

g MAILLAGE_ROUTESADD_MTL9FFE2B1A4 ENV__-_TERRE_T_ADD_MTL9FFE2B1A4 FLAT_PART

usemtl ENV__-_TERRE_T_ADD_MTL9FFE2B1A4

v 221.212 -153.444 -0.9
v 179.26 -156.024 -0.9
v 140.336 -151.282 -0.9
v 102.856 -137.831 -0.9
v 107.25 -129.185 -0.9
v 127.492 -136.896 -0.9
v 193.691 -141.478 -0.9
v 223.561 -143.623 -0.9
v 223.561 -143.623 3.2
v 221.212 -153.444 3.2
v 221.212 -153.444 -0.9
v 223.561 -143.623 -0.9
v 140.336 -151.282 3.2
v 102.856 -137.831 3.2
v 102.856 -137.831 -0.9
v 140.336 -151.282 -0.9
v 102.856 -137.831 3.2
v 107.25 -129.185 3.2
v 107.25 -129.185 -0.9
v 102.856 -137.831 -0.9
v 107.25 -129.185 3.2
v 127.492 -136.896 3.2
v 127.492 -136.896 -0.9
v 107.25 -129.185 -0.9
v 127.492 -136.896 3.2
v 193.691 -141.478 3.2
v 193.691 -141.478 -0.9
v 127.492 -136.896 -0.9
v 193.691 -141.478 3.2
v 223.561 -143.623 3.2
v 223.561 -143.623 -0.9
v 193.691 -141.478 -0.9
# indices d'arêtes de 1 à 32

s off
vt -80.0914 69.8571
vt -82.7958 65.0735
vt -97.6005 68.446
vt -107.462 75.6592
vt -80.0914 69.8571
vt -97.6005 68.446
vt -135.433 76.7533
vt -107.462 75.6592
vt -97.6005 68.446
vt -135.433 76.7533
vt -97.6005 68.446
vt -144.998 68.446
vt -165.199 73.8231
vt -135.433 76.7533
vt -144.998 68.446
vt -166.389 68.4873
vt -165.199 73.8231
vt -144.998 68.446
# indices d'arêtes de texture de 1 à 18

f  4/1 5/2 6/3
f  3/4 4/5 6/6
f  2/7 3/8 6/9
f  2/10 6/11 7/12
f  1/13 2/14 7/15
f  8/16 1/17 7/18
vt 91.3163 1.71429
vt 98.4308 1.71429
vt 98.4308 -0.482143
vt 91.3163 -0.482143
# indices d'arêtes de texture de 19 à 22

f  9/19 10/20 1/21 8/22
vt -107.462 1.71429
vt -80.0914 1.71429
vt -80.0914 -0.482143
vt -107.462 -0.482143
# indices d'arêtes de texture de 23 à 26

f  13/23 14/24 4/25 3/26
vt 93.1428 1.71429
vt 86.7646 1.71429
vt 86.7646 -0.482143
vt 93.1428 -0.482143
# indices d'arêtes de texture de 27 à 30

f  14/27 18/28 5/29 4/30
vt -82.7958 1.71429
vt -97.6005 1.71429
vt -97.6005 -0.482143
vt -82.7958 -0.482143
# indices d'arêtes de texture de 31 à 34

f  18/31 22/32 6/33 5/34
vt -97.6005 1.71429
vt -144.998 1.71429
vt -144.998 -0.482143
vt -97.6005 -0.482143
# indices d'arêtes de texture de 35 à 38

f  22/35 26/36 7/37 6/38
vt -144.998 1.71429
vt -166.389 1.71429
vt -166.389 -0.482143
vt -144.998 -0.482143
# indices d'arêtes de texture de 39 à 42

f  26/39 9/40 8/41 7/42

g MAILLAGE_ROUTESA9987C6CB571F09D ENV__-_TERRE_ABA9987C6CB571F09D SMOOTH_PART

usemtl ENV__-_TERRE_ABA9987C6CB571F09D

v 221.212 -153.444 3.2
v 179.26 -156.024 3.2
v 179.26 -156.024 -0.9
v 221.212 -153.444 -0.9
v 179.26 -156.024 3.2
v 140.336 -151.282 3.2
v 140.336 -151.282 -0.9
v 179.26 -156.024 -0.9
# indices d'arêtes de 33 à 40

vn 0.061365 -0.998115 0
vn -0.0299023 -0.999553 0
vn -0.0299023 -0.999553 0
vn 0.061365 -0.998115 0
vn -0.0299023 -0.999553 0
vn -0.12092 -0.992662 0
vn -0.12092 -0.992662 0
vn -0.0299023 -0.999553 0
# indices d'arêtes normales de 1 à 8

s 1
vt -165.199 1.71429
vt -135.433 1.71429
vt -135.433 -0.482143
vt -165.199 -0.482143
# indices d'arêtes de texture de 43 à 46

f  33/43/1 34/44/2 35/45/3 36/46/4
vt -135.433 1.71429
vt -107.462 1.71429
vt -107.462 -0.482143
vt -135.433 -0.482143
# indices d'arêtes de texture de 47 à 50

f  34/47/2 38/48/6 39/49/7 35/50/3

g MAILLAGE_ROUTES_CLAIR6CB571F09D ENV__-_ASPHALTE_CLAIR6CB571F09D SMOOTH_PART

usemtl ENV__-_ASPHALTE_CLAIR6CB571F09D

v 193.691 -141.478 3.2
v 221.212 -153.444 3.2
v 223.561 -143.623 3.2
v 127.492 -136.896 3.2
v 140.336 -151.282 3.2
v 193.691 -141.478 3.2
v 107.25 -129.185 3.2
v 102.856 -137.831 3.2
v 127.492 -136.896 3.2
v 102.856 -137.831 3.2
v 140.336 -151.282 3.2
v 127.492 -136.896 3.2
v 179.26 -156.024 3.2
v 193.691 -141.478 3.2
v 140.336 -151.282 3.2
v 221.212 -153.444 3.2
v 193.691 -141.478 3.2
v 179.26 -156.024 3.2
# indices d'arêtes de 41 à 58

vn 0 0 1
vn 0 0 1
vn 0 0 1
vn 0 0 1
vn 0 0 1
vn 0 0 1
vn 0 0 1
vn 0 0 1
vn 0 0 1
vn 0 0 1
vn 0 0 1
vn 0 0 1
vn 0 0 1
vn 0 0 1
vn 0 0 1
vn 0 0 1
vn 0 0 1
vn 0 0 1
# indices d'arêtes normales de 9 à 26

s 2
vt -202.998 127.766
vt -231.279 137.803
vt -232.945 127.843
# indices d'arêtes de texture de 51 à 53

f  41/51/9 42/52/10 43/53/11
vt -136.641 127.766
vt -150.447 141.23
vt -202.998 127.766
# indices d'arêtes de texture de 54 à 56

f  44/54/12 45/55/13 41/56/9
vt -115.914 121.47
vt -112.128 130.4
vt -136.641 127.766
# indices d'arêtes de texture de 57 à 59

f  47/57/15 48/58/16 44/59/12
vt -112.128 130.4
vt -150.447 141.23
vt -136.641 127.766
# indices d'arêtes de texture de 60 à 62

f  48/60/16 45/61/13 44/62/12
vt -189.606 143.273
vt -202.998 127.766
vt -150.447 141.23
# indices d'arêtes de texture de 63 à 65

f  53/63/21 41/64/9 45/65/13
vt -231.279 137.803
vt -202.998 127.766
vt -189.606 143.273
# indices d'arêtes de texture de 66 à 68

f  42/66/10 41/67/9 53/68/21
